HIERARCHY
ROOT mixamorig:Hips
{
	OFFSET -0.000008 104.274872 1.554316
	CHANNELS 6 Xposition Yposition Zposition Xrotation Yrotation Zrotation
	JOINT mixamorig:Spine
	{
		OFFSET -0.000005 10.181595 0.131519
		CHANNELS 6 Xposition Yposition Zposition Xrotation Yrotation Zrotation
		JOINT mixamorig:Spine1
		{
			OFFSET -0.000000 9.893959 -1.470707
			CHANNELS 6 Xposition Yposition Zposition Xrotation Yrotation Zrotation
			JOINT mixamorig:Spine2
			{
				OFFSET -0.000000 9.220757 -1.370641
				CHANNELS 6 Xposition Yposition Zposition Xrotation Yrotation Zrotation
				JOINT mixamorig:Neck
				{
					OFFSET 0.000001 16.740417 -2.049036
					CHANNELS 6 Xposition Yposition Zposition Xrotation Yrotation Zrotation
					JOINT mixamorig:Head
					{
						OFFSET 0.000000 9.617874 1.685006
						CHANNELS 6 Xposition Yposition Zposition Xrotation Yrotation Zrotation
						JOINT mixamorig:HeadTop_End
						{
							OFFSET 0.000002 22.037354 7.501101
							CHANNELS 6 Xposition Yposition Zposition Xrotation Yrotation Zrotation
							End Site
							{
								OFFSET 0.000168 2310.654297 -282.823242
							}
						}
					}
				}
				JOINT mixamorig:RightShoulder
				{
					OFFSET -4.569970 11.014908 -2.160885
					CHANNELS 6 Xposition Yposition Zposition Xrotation Yrotation Zrotation
					JOINT mixamorig:RightArm
					{
						OFFSET -10.592851 -0.524811 -2.232101
						CHANNELS 6 Xposition Yposition Zposition Xrotation Yrotation Zrotation
						JOINT mixamorig:RightForeArm
						{
							OFFSET -27.841511 0.000031 -0.000004
							CHANNELS 6 Xposition Yposition Zposition Xrotation Yrotation Zrotation
							JOINT mixamorig:RightHand
							{
								OFFSET -28.328831 -0.000015 0.000015
								CHANNELS 6 Xposition Yposition Zposition Xrotation Yrotation Zrotation
								JOINT mixamorig:RightHandThumb1
								{
									OFFSET -2.464806 -1.573990 2.681852
									CHANNELS 6 Xposition Yposition Zposition Xrotation Yrotation Zrotation
									JOINT mixamorig:RightHandThumb2
									{
										OFFSET -3.215179 -1.872803 1.924282
										CHANNELS 6 Xposition Yposition Zposition Xrotation Yrotation Zrotation
										JOINT mixamorig:RightHandThumb3
										{
											OFFSET -2.654831 -1.527969 1.512609
											CHANNELS 6 Xposition Yposition Zposition Xrotation Yrotation Zrotation
											JOINT mixamorig:RightHandThumb4
											{
												OFFSET -2.018814 -1.152008 1.108052
												CHANNELS 6 Xposition Yposition Zposition Xrotation Yrotation Zrotation
												End Site
												{
													OFFSET -188.809540 -114.533607 132.431396
												}
											}
										}
									}
								}
								JOINT mixamorig:RightHandIndex1
								{
									OFFSET -9.108284 -0.517868 2.259835
									CHANNELS 6 Xposition Yposition Zposition Xrotation Yrotation Zrotation
									JOINT mixamorig:RightHandIndex2
									{
										OFFSET -3.699989 0.000000 0.001215
										CHANNELS 6 Xposition Yposition Zposition Xrotation Yrotation Zrotation
										JOINT mixamorig:RightHandIndex3
										{
											OFFSET -2.850006 0.000031 -0.000522
											CHANNELS 6 Xposition Yposition Zposition Xrotation Yrotation Zrotation
											JOINT mixamorig:RightHandIndex4
											{
												OFFSET -2.772186 -0.000015 -0.000020
												CHANNELS 6 Xposition Yposition Zposition Xrotation Yrotation Zrotation
												End Site
												{
													OFFSET -277.218445 0.000000 -0.050231
												}
											}
										}
									}
								}
								JOINT mixamorig:RightHandMiddle1
								{
									OFFSET -9.532516 -0.000031 -0.000023
									CHANNELS 6 Xposition Yposition Zposition Xrotation Yrotation Zrotation
									JOINT mixamorig:RightHandMiddle2
									{
										OFFSET -3.700005 -0.000015 0.003713
										CHANNELS 6 Xposition Yposition Zposition Xrotation Yrotation Zrotation
										JOINT mixamorig:RightHandMiddle3
										{
											OFFSET -2.949974 0.000015 -0.002054
											CHANNELS 6 Xposition Yposition Zposition Xrotation Yrotation Zrotation
											JOINT mixamorig:RightHandMiddle4
											{
												OFFSET -2.946640 0.000000 -0.000156
												CHANNELS 6 Xposition Yposition Zposition Xrotation Yrotation Zrotation
												End Site
												{
													OFFSET -294.664337 0.000000 -0.113670
												}
											}
										}
									}
								}
								JOINT mixamorig:RightHandRing1
								{
									OFFSET -9.103600 -0.043076 -1.865134
									CHANNELS 6 Xposition Yposition Zposition Xrotation Yrotation Zrotation
									JOINT mixamorig:RightHandRing2
									{
										OFFSET -3.379288 0.000000 -0.001055
										CHANNELS 6 Xposition Yposition Zposition Xrotation Yrotation Zrotation
										JOINT mixamorig:RightHandRing3
										{
											OFFSET -2.889687 -0.000015 0.000379
											CHANNELS 6 Xposition Yposition Zposition Xrotation Yrotation Zrotation
											JOINT mixamorig:RightHandRing4
											{
												OFFSET -2.638809 -0.000015 0.000941
												CHANNELS 6 Xposition Yposition Zposition Xrotation Yrotation Zrotation
												End Site
												{
													OFFSET -263.880371 0.000000 0.516020
												}
											}
										}
									}
								}
								JOINT mixamorig:RightHandPinky1
								{
									OFFSET -8.076683 -0.486710 -3.806280
									CHANNELS 6 Xposition Yposition Zposition Xrotation Yrotation Zrotation
									JOINT mixamorig:RightHandPinky2
									{
										OFFSET -3.600014 -0.000015 -0.003747
										CHANNELS 6 Xposition Yposition Zposition Xrotation Yrotation Zrotation
										JOINT mixamorig:RightHandPinky3
										{
											OFFSET -2.099983 0.000000 -0.005739
											CHANNELS 6 Xposition Yposition Zposition Xrotation Yrotation Zrotation
											JOINT mixamorig:RightHandPinky4
											{
												OFFSET -2.115768 -0.000031 -0.003680
												CHANNELS 6 Xposition Yposition Zposition Xrotation Yrotation Zrotation
												End Site
												{
													OFFSET -211.577087 0.000000 -0.350686
												}
											}
										}
									}
								}
							}
						}
					}
				}
				JOINT mixamorig:LeftShoulder
				{
					OFFSET 4.570447 11.014725 -2.160855
					CHANNELS 6 Xposition Yposition Zposition Xrotation Yrotation Zrotation
					JOINT mixamorig:LeftArm
					{
						OFFSET 10.592371 -0.524597 -2.232119
						CHANNELS 6 Xposition Yposition Zposition Xrotation Yrotation Zrotation
						JOINT mixamorig:LeftForeArm
						{
							OFFSET 27.841532 -0.000031 0.000026
							CHANNELS 6 Xposition Yposition Zposition Xrotation Yrotation Zrotation
							JOINT mixamorig:LeftHand
							{
								OFFSET 28.328846 -0.000061 0.000022
								CHANNELS 6 Xposition Yposition Zposition Xrotation Yrotation Zrotation
								JOINT mixamorig:LeftHandThumb1
								{
									OFFSET 2.466141 -1.576172 2.681732
									CHANNELS 6 Xposition Yposition Zposition Xrotation Yrotation Zrotation
									JOINT mixamorig:LeftHandThumb2
									{
										OFFSET 3.217812 -1.872070 1.916482
										CHANNELS 6 Xposition Yposition Zposition Xrotation Yrotation Zrotation
										JOINT mixamorig:LeftHandThumb3
										{
											OFFSET 2.656029 -1.528778 1.514513
											CHANNELS 6 Xposition Yposition Zposition Xrotation Yrotation Zrotation
											JOINT mixamorig:LeftHandThumb4
											{
												OFFSET 2.020889 -1.154053 1.115139
												CHANNELS 6 Xposition Yposition Zposition Xrotation Yrotation Zrotation
												End Site
												{
													OFFSET 190.885437 -115.081749 130.048782
												}
											}
										}
									}
								}
								JOINT mixamorig:LeftHandIndex1
								{
									OFFSET 9.109314 -0.518021 2.259871
									CHANNELS 6 Xposition Yposition Zposition Xrotation Yrotation Zrotation
									JOINT mixamorig:LeftHandIndex2
									{
										OFFSET 3.699989 0.000000 -0.000322
										CHANNELS 6 Xposition Yposition Zposition Xrotation Yrotation Zrotation
										JOINT mixamorig:LeftHandIndex3
										{
											OFFSET 2.850006 0.000000 0.000352
											CHANNELS 6 Xposition Yposition Zposition Xrotation Yrotation Zrotation
											JOINT mixamorig:LeftHandIndex4
											{
												OFFSET 2.774864 -0.000031 -0.000027
												CHANNELS 6 Xposition Yposition Zposition Xrotation Yrotation Zrotation
												End Site
												{
													OFFSET 277.486267 0.000000 -0.009857
												}
											}
										}
									}
								}
								JOINT mixamorig:LeftHandMiddle1
								{
									OFFSET 9.533394 0.000061 0.000044
									CHANNELS 6 Xposition Yposition Zposition Xrotation Yrotation Zrotation
									JOINT mixamorig:LeftHandMiddle2
									{
										OFFSET 3.699989 -0.000015 -0.000231
										CHANNELS 6 Xposition Yposition Zposition Xrotation Yrotation Zrotation
										JOINT mixamorig:LeftHandMiddle3
										{
											OFFSET 2.949997 -0.000015 -0.000059
											CHANNELS 6 Xposition Yposition Zposition Xrotation Yrotation Zrotation
											JOINT mixamorig:LeftHandMiddle4
											{
												OFFSET 2.952896 0.000031 0.000063
												CHANNELS 6 Xposition Yposition Zposition Xrotation Yrotation Zrotation
												End Site
												{
													OFFSET 295.289337 0.000000 0.022810
												}
											}
										}
									}
								}
								JOINT mixamorig:LeftHandRing1
								{
									OFFSET 9.104523 -0.042999 -1.865074
									CHANNELS 6 Xposition Yposition Zposition Xrotation Yrotation Zrotation
									JOINT mixamorig:LeftHandRing2
									{
										OFFSET 3.150009 -0.000031 0.000043
										CHANNELS 6 Xposition Yposition Zposition Xrotation Yrotation Zrotation
										JOINT mixamorig:LeftHandRing3
										{
											OFFSET 2.949982 -0.000015 0.000040
											CHANNELS 6 Xposition Yposition Zposition Xrotation Yrotation Zrotation
											JOINT mixamorig:LeftHandRing4
											{
												OFFSET 2.644348 0.000000 0.000057
												CHANNELS 6 Xposition Yposition Zposition Xrotation Yrotation Zrotation
												End Site
												{
													OFFSET 264.434631 0.000000 0.012105
												}
											}
										}
									}
								}
								JOINT mixamorig:LeftHandPinky1
								{
									OFFSET 8.077789 -0.486847 -3.806259
									CHANNELS 6 Xposition Yposition Zposition Xrotation Yrotation Zrotation
									JOINT mixamorig:LeftHandPinky2
									{
										OFFSET 3.599953 0.000031 0.014727
										CHANNELS 6 Xposition Yposition Zposition Xrotation Yrotation Zrotation
										JOINT mixamorig:LeftHandPinky3
										{
											OFFSET 2.100021 0.000015 0.007705
											CHANNELS 6 Xposition Yposition Zposition Xrotation Yrotation Zrotation
											JOINT mixamorig:LeftHandPinky4
											{
												OFFSET 2.125504 0.000031 0.007517
												CHANNELS 6 Xposition Yposition Zposition Xrotation Yrotation Zrotation
												End Site
												{
													OFFSET 212.550781 0.000000 0.625752
												}
											}
										}
									}
								}
							}
						}
					}
				}
			}
		}
	}
	JOINT mixamorig:RightUpLeg
	{
		OFFSET -8.207787 -6.751648 -1.599560
		CHANNELS 6 Xposition Yposition Zposition Xrotation Yrotation Zrotation
		JOINT mixamorig:RightLeg
		{
			OFFSET -0.000002 -44.370117 0.345942
			CHANNELS 6 Xposition Yposition Zposition Xrotation Yrotation Zrotation
			JOINT mixamorig:RightFoot
			{
				OFFSET 0.000003 -44.423679 -3.043532
				CHANNELS 6 Xposition Yposition Zposition Xrotation Yrotation Zrotation
				JOINT mixamorig:RightToeBase
				{
					OFFSET -0.000002 -8.728671 10.710558
					CHANNELS 6 Xposition Yposition Zposition Xrotation Yrotation Zrotation
					JOINT mixamorig:RightToe_End
					{
						OFFSET -0.000001 -0.000679 9.278119
						CHANNELS 6 Xposition Yposition Zposition Xrotation Yrotation Zrotation
						End Site
						{
							OFFSET 0.000000 -0.067690 927.812134
						}
					}
				}
			}
		}
	}
	JOINT mixamorig:LeftUpLeg
	{
		OFFSET 8.207793 -6.751686 -1.599556
		CHANNELS 6 Xposition Yposition Zposition Xrotation Yrotation Zrotation
		JOINT mixamorig:LeftLeg
		{
			OFFSET -0.000004 -44.370014 0.346954
			CHANNELS 6 Xposition Yposition Zposition Xrotation Yrotation Zrotation
			JOINT mixamorig:LeftFoot
			{
				OFFSET -0.000001 -44.423672 -3.044401
				CHANNELS 6 Xposition Yposition Zposition Xrotation Yrotation Zrotation
				JOINT mixamorig:LeftToeBase
				{
					OFFSET -0.000002 -8.728669 10.710558
					CHANNELS 6 Xposition Yposition Zposition Xrotation Yrotation Zrotation
					JOINT mixamorig:LeftToe_End
					{
						OFFSET -0.000003 -0.000679 9.278133
						CHANNELS 6 Xposition Yposition Zposition Xrotation Yrotation Zrotation
						End Site
						{
							OFFSET 0.000000 -0.068021 927.813477
						}
					}
				}
			}
		}
	}
}
MOTION
Frames: 3
Frame Time: 0.033333
0.000006 104.270477 1.554256 0.000010 0.000003 -0.000113 -0.000005 10.181587 0.131522 0.000001 -0.000003 0.000084 -0.000000 9.893967 -1.470711 0.000001 0.000000 -0.000000 -0.000000 9.220802 -1.370642 0.000000 -0.000000 -0.000000 0.000001 16.740433 -2.049030 0.000000 -0.000000 -0.000000 0.000000 9.617859 1.685014 0.000000 0.000000 0.000000 0.000002 22.037384 7.501101 0.000000 -0.000000 0.000000 -4.569968 11.014880 -2.160881 0.000008 0.000001 -0.000038 -10.592745 -0.524847 -2.231711 82.304872 75.098872 -67.787899 -27.841442 0.000008 0.000607 18.285163 108.427744 -25.170685 -28.328835 0.000006 0.000027 -0.000321 -0.000044 0.000007 -2.464395 -1.573732 2.682227 -57.759071 -160.280470 -34.014267 -3.214831 -1.872456 1.924680 124.683765 -0.290919 134.672725 -2.654919 -1.527754 1.512998 151.851757 34.281901 27.260682 -2.018834 -1.152013 1.108054 -0.000003 -0.000001 0.000002 -9.108388 -0.517626 2.260282 131.026442 15.786625 -33.963461 -3.700081 0.000238 0.001673 127.686780 16.979379 -33.761608 -2.850092 0.000320 -0.000114 124.683464 13.977217 -26.327734 -2.772171 0.000014 -0.000022 0.000000 -0.000000 0.000000 -9.532569 0.000244 0.000380 125.891123 12.542099 -24.557110 -3.700073 0.000302 0.004075 121.759597 11.173408 -19.749357 -2.950067 0.000338 -0.001704 117.289224 10.072230 -16.446962 -2.946614 -0.000013 -0.000153 -0.000000 0.000000 -0.000001 -9.103678 -0.042756 -1.864723 125.153395 11.113680 -21.158246 -3.379326 0.000325 -0.000680 120.443815 6.068181 -10.613946 -2.889755 0.000371 0.000694 115.371375 5.630611 -8.962222 -2.638808 -0.000028 0.000945 -0.000004 -0.000001 -0.000000 -8.076731 -0.486412 -3.805843 127.709484 12.415567 -24.693053 -3.600014 0.000290 -0.003366 126.378512 4.049986 -7.337320 -2.100001 0.000318 -0.005361 119.952561 2.528317 -4.009808 -2.115767 -0.000040 -0.003679 -0.000000 0.000001 -0.000003 4.570446 11.014691 -2.160851 -0.000018 0.000010 -0.000021 10.592498 -0.524583 -2.232356 35.612548 -73.178005 26.822252 27.841791 -0.000052 -0.000127 24.528681 -106.402811 32.407533 28.328838 -0.000028 0.000022 0.000022 -0.000089 0.000000 2.465818 -1.575947 2.681757 -64.656818 180.565039 71.010451 3.217467 -1.871908 1.916539 -52.537586 174.568038 32.064904 2.656092 -1.528538 1.514446 168.357087 -24.912328 388.023757 2.020894 -1.154060 1.115167 0.000006 0.000004 0.000004 9.109447 -0.517818 2.259826 135.336264 -22.082225 50.786346 3.700073 0.000090 -0.000413 98.158527 -35.580627 40.647279 2.850068 0.000180 0.000231 89.314866 -24.546477 24.261964 2.774884 -0.000029 -0.000009 -0.000001 -0.000003 0.000001 9.533522 0.000156 0.000065 162.052303 -17.026120 86.887280 3.700134 0.000121 -0.000243 145.467375 -25.363957 71.799556 2.950142 0.000180 -0.000089 141.176472 -21.327160 56.243124 2.952861 -0.000033 0.000061 -0.000002 -0.000002 0.000002 9.104450 -0.043038 -1.865004 177.619998 -18.387607 165.383660 3.150023 0.000029 0.000096 162.687484 -22.282372 104.598098 2.949992 0.000005 0.000101 162.892253 -18.734943 95.293625 2.644319 0.000019 0.000056 0.000001 -0.000002 -0.000000 8.077571 -0.486791 -3.806108 197.896931 -38.290273 229.484603 3.599657 0.000324 0.014884 199.263133 -17.726815 274.794793 2.099731 0.000344 0.007853 197.851005 -12.962528 -72.167068 2.125506 -0.000014 0.007516 0.000000 0.000000 -0.000001 -8.207786 -6.751667 -1.599560 -0.077001 -0.000003 0.000080 -0.000002 -44.370110 0.345938 0.153719 -0.000000 -0.000000 0.000000 -44.423679 -3.043532 -0.076700 0.000000 -0.000002 -0.000006 -8.728667 10.710559 -0.000009 -0.000000 -0.000000 -0.000001 -0.000679 9.278123 0.000000 -0.000000 -0.000000 8.207792 -6.751710 -1.599556 -0.074518 -0.000003 0.000081 -0.000002 -44.370014 0.346960 0.148822 0.000002 0.000000 -0.000001 -44.423664 -3.044403 -0.074314 0.000000 -0.000002 -0.000004 -8.728671 10.710558 0.000007 -0.000000 -0.000000 0.000000 -0.000680 9.278137 -0.000000 0.000000 -0.000001 
0.000006 104.270477 1.554256 0.000010 0.000003 -0.000113 -0.000005 10.181587 0.131522 0.000001 -0.000003 0.000084 -0.000000 9.893967 -1.470711 0.000001 0.000000 -0.000000 -0.000000 9.220802 -1.370642 0.000000 -0.000000 -0.000000 0.000001 16.740433 -2.049030 0.000000 -0.000000 -0.000000 0.000000 9.617859 1.685014 0.000000 0.000000 0.000000 0.000002 22.037384 7.501101 0.000000 -0.000000 0.000000 -4.569968 11.014880 -2.160881 0.000008 0.000001 -0.000038 -10.592744 -0.524836 -2.231712 81.617899 75.316803 -67.354947 -27.841463 -0.000001 0.000604 18.851172 107.336375 -25.440319 -28.328829 0.000022 0.000032 -0.000323 -0.000043 0.000007 -2.464482 -1.573597 2.682199 -61.875100 -177.586230 -57.439466 -3.214839 -1.872422 1.924649 123.910164 4.545295 126.051018 -2.654922 -1.527760 1.512992 150.461663 34.257818 30.426847 -2.018823 -1.152011 1.108048 -0.000004 -0.000004 0.000004 -9.108377 -0.517610 2.260296 131.390218 15.541814 -33.729130 -3.700082 0.000226 0.001672 126.473930 17.892295 -34.621887 -2.850107 0.000316 -0.000120 124.194286 14.712755 -27.401472 -2.772166 0.000001 -0.000018 0.000000 -0.000001 0.000001 -9.532586 0.000254 0.000385 125.482678 12.857157 -24.940851 -3.700079 0.000306 0.004100 118.856179 11.962940 -19.954903 -2.950066 0.000330 -0.001702 115.680728 10.648717 -16.851260 -2.946631 0.000030 -0.000153 -0.000003 0.000000 -0.000000 -9.103683 -0.042743 -1.864710 124.646731 11.555665 -21.757692 -3.379308 0.000331 -0.000690 118.822656 5.194185 -8.803537 -2.889728 0.000323 0.000714 114.221588 4.881736 -7.611541 -2.638810 -0.000017 0.000937 -0.000001 0.000002 0.000000 -8.076742 -0.486398 -3.805848 125.060531 12.840990 -24.146957 -3.599996 0.000292 -0.003395 124.812090 3.131980 -5.354628 -2.099987 0.000321 -0.005357 121.197773 1.669691 -2.595164 -2.115775 -0.000034 -0.003680 0.000002 0.000001 -0.000007 4.570446 11.014691 -2.160851 -0.000018 0.000010 -0.000021 10.592501 -0.524581 -2.232353 36.808251 -73.805843 28.056580 27.841801 -0.000058 -0.000124 20.600405 -105.361924 26.817729 28.328838 -0.000028 0.000025 0.000022 -0.000089 0.000000 2.465825 -1.576039 2.681773 -65.474077 173.011670 63.329152 3.217452 -1.871884 1.916540 -53.770425 178.007816 38.302331 2.656097 -1.528586 1.514468 167.767013 -22.059964 398.519873 2.020898 -1.154054 1.115161 0.000007 -0.000000 0.000003 9.109450 -0.517837 2.259812 132.165567 -22.975735 49.210830 3.700093 0.000112 -0.000402 94.114570 -36.590737 39.137804 2.850081 0.000146 0.000246 85.707823 -25.696591 23.894210 2.774891 -0.000010 -0.000040 0.000005 0.000002 -0.000002 9.533525 0.000131 0.000069 162.681733 -16.407757 86.813740 3.700154 0.000116 -0.000223 143.974596 -25.817123 70.347048 2.950157 0.000194 -0.000079 139.951683 -21.694491 55.476132 2.952867 -0.000032 0.000068 0.000002 -0.000003 -0.000000 9.104431 -0.043054 -1.865003 178.941872 -16.817203 172.861761 3.150001 0.000004 0.000100 166.049931 -21.008060 113.172587 2.949961 -0.000028 0.000110 166.811142 -17.972251 107.673370 2.644321 0.000016 0.000057 -0.000000 0.000001 -0.000001 8.077555 -0.486762 -3.806103 200.699727 -31.676450 246.048303 3.599740 0.000407 0.014874 200.131605 -9.891640 307.100113 2.099834 0.000405 0.007854 199.348264 -8.264908 -47.035777 2.125498 -0.000030 0.007517 -0.000001 0.000000 0.000002 -8.207786 -6.751667 -1.599560 -0.077001 -0.000003 0.000080 -0.000002 -44.370110 0.345938 0.153719 -0.000000 -0.000000 0.000000 -44.423679 -3.043532 -0.076700 0.000000 -0.000002 -0.000006 -8.728667 10.710559 -0.000009 -0.000000 -0.000000 -0.000001 -0.000679 9.278123 0.000000 -0.000000 -0.000000 8.207792 -6.751710 -1.599556 -0.074518 -0.000003 0.000081 -0.000002 -44.370014 0.346960 0.148822 0.000002 0.000000 -0.000001 -44.423664 -3.044403 -0.074314 0.000000 -0.000002 -0.000004 -8.728671 10.710558 0.000007 -0.000000 -0.000000 0.000000 -0.000680 9.278137 -0.000000 0.000000 -0.000001 
0.000006 104.270477 1.554256 0.000010 0.000003 -0.000113 -0.000005 10.181587 0.131522 0.000001 -0.000003 0.000084 -0.000000 9.893967 -1.470711 0.000001 0.000000 -0.000000 -0.000000 9.220802 -1.370642 0.000000 -0.000000 -0.000000 0.000001 16.740433 -2.049030 0.000000 -0.000000 -0.000000 0.000000 9.617859 1.685014 0.000000 0.000000 0.000000 0.000002 22.037384 7.501101 0.000000 -0.000000 0.000000 -4.569968 11.014880 -2.160881 0.000008 0.000001 -0.000038 -10.592747 -0.524841 -2.231712 80.666727 75.073369 -66.238737 -27.841457 0.000022 0.000598 19.638290 107.215692 -26.429484 -28.328829 0.000022 0.000040 -0.000324 -0.000044 0.000007 -2.464488 -1.573624 2.682197 -62.263998 -176.309476 -57.185721 -3.214814 -1.872458 1.924649 124.638740 0.029292 134.198560 -2.654917 -1.527704 1.512982 147.475846 34.781427 44.461902 -2.018830 -1.152002 1.108052 -0.000003 -0.000003 0.000000 -9.108384 -0.517658 2.260288 132.219444 17.969355 -39.394701 -3.700071 0.000218 0.001661 125.887326 20.297331 -38.578671 -2.850119 0.000305 -0.000135 123.132533 16.246930 -29.534739 -2.772162 0.000014 -0.000021 -0.000000 0.000001 -0.000001 -9.532604 0.000216 0.000403 126.813868 15.435929 -30.578695 -3.700089 0.000289 0.004089 119.078515 13.985904 -23.397260 -2.950066 0.000305 -0.001704 115.999671 11.992905 -19.073037 -2.946623 0.000015 -0.000145 -0.000002 -0.000001 -0.000001 -9.103694 -0.042778 -1.864711 126.253547 14.393720 -27.898780 -3.379313 0.000319 -0.000693 120.300204 6.482276 -11.300714 -2.889765 0.000346 0.000716 115.859611 5.177262 -8.325457 -2.638815 -0.000031 0.000940 -0.000000 -0.000001 0.000002 -8.076744 -0.486437 -3.805833 127.937872 15.805828 -31.428350 -3.600029 0.000289 -0.003365 125.505054 3.874436 -6.863533 -2.099993 0.000307 -0.005346 121.551249 1.737649 -2.734901 -2.115766 -0.000056 -0.003681 0.000001 -0.000002 -0.000004 4.570446 11.014691 -2.160851 -0.000018 0.000010 -0.000021 10.592503 -0.524577 -2.232358 38.420630 -74.153977 29.502691 27.841793 -0.000074 -0.000116 21.692708 -104.776277 27.931203 28.328838 -0.000029 0.000024 0.000021 -0.000089 0.000000 2.465809 -1.576020 2.681777 -65.238559 172.888822 62.557477 3.217458 -1.871899 1.916531 -53.009204 176.267935 34.548726 2.656112 -1.528581 1.514474 168.039961 -20.747815 402.748088 2.020883 -1.154083 1.115174 0.000001 0.000006 0.000006 9.109460 -0.517852 2.259835 133.080403 -25.892745 55.792844 3.700092 0.000092 -0.000399 93.692403 -38.016894 40.371561 2.850076 0.000146 0.000235 86.168232 -25.312242 23.720190 2.774891 -0.000054 -0.000030 0.000000 0.000001 -0.000002 9.533495 0.000086 0.000080 165.775795 -18.837515 106.054301 3.700140 0.000105 -0.000229 145.371233 -27.169579 75.553613 2.950138 0.000190 -0.000081 140.828938 -21.158784 55.401789 2.952878 -0.000023 0.000066 -0.000002 0.000001 -0.000002 9.104349 -0.042989 -1.864980 183.306513 -20.154278 198.456706 3.149932 -0.000010 0.000116 169.147709 -22.255427 128.455409 2.949927 -0.000035 0.000116 168.995327 -17.283341 115.275507 2.644324 0.000016 0.000061 -0.000000 -0.000000 0.000000 8.077562 -0.486712 -3.806076 209.401210 -33.467019 262.454882 3.599826 0.000402 0.014929 211.438287 -10.087492 324.297764 2.099837 0.000395 0.007875 205.811809 -7.997844 -35.003217 2.125482 -0.000012 0.007513 -0.000001 -0.000001 -0.000000 -8.207786 -6.751667 -1.599560 -0.077001 -0.000003 0.000080 -0.000002 -44.370110 0.345938 0.153719 -0.000000 -0.000000 0.000000 -44.423679 -3.043532 -0.076700 0.000000 -0.000002 -0.000006 -8.728667 10.710559 -0.000009 -0.000000 -0.000000 -0.000001 -0.000679 9.278123 0.000000 -0.000000 -0.000000 8.207792 -6.751710 -1.599556 -0.074518 -0.000003 0.000081 -0.000002 -44.370014 0.346960 0.148822 0.000002 0.000000 -0.000001 -44.423664 -3.044403 -0.074314 0.000000 -0.000002 -0.000004 -8.728671 10.710558 0.000007 -0.000000 -0.000000 0.000000 -0.000680 9.278137 -0.000000 0.000000 -0.000001 
